<?xml version="1.0" encoding="UTF-8" standalone="no"?>
<svg
   xmlns:dc="http://purl.org/dc/elements/1.1/"
   xmlns:cc="http://creativecommons.org/ns#"
   xmlns:rdf="http://www.w3.org/1999/02/22-rdf-syntax-ns#"
   xmlns:svg="http://www.w3.org/2000/svg"
   xmlns="http://www.w3.org/2000/svg"
   xmlns:sodipodi="http://sodipodi.sourceforge.net/DTD/sodipodi-0.dtd"
   xmlns:inkscape="http://www.inkscape.org/namespaces/inkscape"
   width="375pt"
   height="374.999991pt"
   viewBox="0 0 375 374.999991"
   version="1.2"
   id="svg62"
   sodipodi:docname="github.svg"
   inkscape:version="1.0.2 (e86c870879, 2021-01-15)">
  <metadata
     id="metadata66">
    <rdf:RDF>
      <cc:Work
         rdf:about="">
        <dc:format>image/svg+xml</dc:format>
        <dc:type
           rdf:resource="http://purl.org/dc/dcmitype/StillImage" />
      </cc:Work>
    </rdf:RDF>
  </metadata>
  <sodipodi:namedview
     pagecolor="#ffffff"
     bordercolor="#666666"
     borderopacity="1"
     objecttolerance="10"
     gridtolerance="10"
     guidetolerance="10"
     inkscape:pageopacity="0"
     inkscape:pageshadow="2"
     inkscape:window-width="1920"
     inkscape:window-height="1020"
     id="namedview64"
     showgrid="false"
     inkscape:zoom="1.2091526"
     inkscape:cx="164.81433"
     inkscape:cy="224.17898"
     inkscape:window-x="0"
     inkscape:window-y="28"
     inkscape:window-maximized="1"
     inkscape:current-layer="surface1"
     inkscape:document-rotation="0" />
  <defs
     id="defs5">
    <clipPath
       id="clip1">
      <path
         d="M 17 30.703125 L 375 30.703125 L 375 344.109375 L 17 344.109375 Z M 17 30.703125 "
         id="path2" />
    </clipPath>
  </defs>
  <g
     id="surface1"
     transform="translate(68.888201,20.439597)">
    <rect
       x="0"
       y="0"
       width="375"
       height="375"
       style="fill:#ffffff;fill-opacity:0;stroke:none"
       id="rect9"
       inkscape:export-xdpi="96"
       inkscape:export-ydpi="96" />
    <rect
       x="0"
       y="0"
       width="375"
       height="375"
       style="fill:none;fill-opacity:1;stroke:none"
       id="rect11" />
    <g
       clip-path="url(#clip1)"
       clip-rule="nonzero"
       id="g15" />
    <path
       style="fill:#a1a1cc;fill-opacity:1;fill-rule:nonzero;stroke:none;stroke-width:1.7729"
       d="m 119.27912,-11.552238 c -2.94377,0 -5.88754,0.06907 -8.83131,0.214146 -2.94377,0.145066 -5.88059,0.359214 -8.81047,0.649347 -2.929878,0.283226 -5.852833,0.64244 -8.768821,1.0707334 -2.909057,0.4282912 -5.811164,0.9325735 -8.699389,1.5059329 -2.895173,0.5664522 -5.762569,1.2088901 -8.623013,1.9204092 -2.860464,0.7115202 -5.693147,1.4921174 -8.511947,2.341796 -2.818784,0.8496765 -5.616754,1.7684353 -8.386963,2.7562725 -2.77714,0.98783562 -5.526499,2.04475332 -8.248097,3.1638404 -2.721597,1.119087 -5.408482,2.3072562 -8.074536,3.5575948 -2.659105,1.257246 -5.290448,2.5697574 -7.887077,3.9513475 -2.603563,1.3815893 -5.165481,2.8253513 -7.685738,4.3312793 -2.527188,1.505947 -5.019682,3.074036 -7.463565,4.697406 -2.450815,1.630286 -4.859986,3.315817 -7.227496,5.05663 -2.3675274,1.747708 -4.6864261,3.55068 -6.9636804,5.408917 -2.2772555,1.858236 -4.50591733,3.771736 -6.6859674,5.733604 -2.1870001,1.968763 -4.3184565,3.985894 -6.4013025,6.05827 -2.0828637,2.072394 -4.1101667,4.193118 -6.0888947,6.362227 -1.97871,2.169094 -3.901877,4.386545 -5.769502,6.652352 -1.867623,2.265809 -3.679706,4.57305 -5.436244,6.921761 -1.756539,2.35561 -3.450603,4.75267 -5.089107,7.184269 -1.638521,2.438495 -3.207601,4.911546 -4.728088,7.419135 -1.513537,2.514485 -2.964599,5.063525 -4.353168,7.647102 -1.388571,2.583578 -2.707716,5.194778 -3.971302,7.847431 -1.256654,2.645739 -2.450833,5.326033 -3.575569,8.027035 -1.131687,2.70792 -2.187001,5.44348 -3.179821,8.19974 -0.992839,2.75627 -1.916236,5.53328 -2.770209,8.33789 -0.860904,2.80463 -1.645453,5.63 -2.360559,8.46916 -0.715126,2.83916 -1.360808,5.69905 -1.937066,8.57276 -0.56931,2.86681 -1.076145,5.75433 -1.506588,8.64876 -0.430462,2.90133 -0.791499,5.80958 -1.083093,8.72474 -0.291596,2.91515 -0.506817,5.83032 -0.652633,8.75928 -0.138812,2.92206 -0.215221,5.85104 -0.215221,8.78 0,2.92897 0.07643,5.85794 0.215221,8.78 0.145744,2.92896 0.361037,5.84414 0.652633,8.75929 0.291594,2.91515 0.652631,5.8234 1.083093,8.72474 0.430443,2.89443 0.937278,5.78195 1.506588,8.64876 0.576258,2.8737 1.22194,5.73359 1.937066,8.57275 0.715106,2.83917 1.499655,5.66453 2.360559,8.46917 0.853973,2.80461 1.77737,5.58162 2.770209,8.33788 0.99282,2.75626 2.048134,5.49183 3.179821,8.19974 1.124736,2.701 2.318915,5.38129 3.575569,8.02703 1.263586,2.64575 2.582731,5.26385 3.971302,7.84744 1.388569,2.58358 2.839631,5.1326 4.353168,7.64019 1.520487,2.5145 3.089567,4.98755 4.728088,7.42604 1.638504,2.4316 3.332568,4.82867 5.089107,7.18427 1.756538,2.34871 3.568621,4.65595 5.436244,6.92177 1.867625,2.2658 3.790792,4.48327 5.769502,6.65236 1.978728,2.1691 4.006031,4.28983 6.0888947,6.36222 2.082846,2.07238 4.2143024,4.0895 6.4013025,6.05827 2.18005007,1.96187 4.4087119,3.87537 6.6859674,5.73359 2.2772543,1.85825 4.596153,3.66123 6.9636804,5.40893 2.36751,1.74081 4.776681,3.42635 7.227496,5.05663 2.443883,1.62337 4.936377,3.19146 7.463565,4.6974 2.520257,1.50593 5.082175,2.9497 7.685738,4.33129 2.596629,1.38159 5.227972,2.69409 7.887077,3.95134 2.666054,1.25034 5.352939,2.43851 8.074536,3.55759 2.721598,1.11909 5.470957,2.17602 8.248097,3.16385 2.770209,0.98784 5.568179,1.90659 8.386963,2.75628 2.8188,0.84965 5.651483,1.63027 8.511947,2.34178 2.860444,0.71153 5.72784,1.35397 8.623013,1.92041 2.888225,0.57336 5.790332,1.07765 8.699389,1.50593 2.915988,0.4283 5.838943,0.78751 8.768821,1.07073 2.92988,0.29015 5.8667,0.50428 8.81047,0.64936 2.94377,0.14501 5.88754,0.21414 8.83131,0.21414 2.94376,0 5.88753,-0.0693 8.8313,-0.21414 2.94377,-0.14501 5.8806,-0.35921 8.81049,-0.64936 2.92987,-0.28322 5.85281,-0.64243 8.76881,-1.07073 2.90906,-0.42828 5.81117,-0.93257 8.69939,-1.50593 2.89518,-0.56644 5.76257,-1.20888 8.62302,-1.92041 2.85352,-0.71151 5.69315,-1.49213 8.51194,-2.34178 2.81879,-0.84969 5.61676,-1.76844 8.38696,-2.75628 2.77715,-0.98783 5.52651,-2.04476 8.2481,-3.16385 2.7216,-1.11908 5.40848,-2.30725 8.07454,-3.55759 2.6591,-1.25725 5.29045,-2.56975 7.88708,-3.95134 2.60356,-1.38159 5.16548,-2.82536 7.68574,-4.33129 2.52718,-1.50594 5.01968,-3.07403 7.46356,-4.6974 2.45081,-1.63028 4.85999,-3.31582 7.22749,-5.05663 2.36752,-1.7477 4.68643,-3.55068 6.96369,-5.40893 2.27726,-1.85822 4.50591,-3.77172 6.68596,-5.73359 2.187,-1.96877 4.31846,-3.98589 6.40131,-6.05827 2.08286,-2.07239 4.11017,-4.19312 6.08888,-6.36222 1.97872,-2.16909 3.90188,-4.38656 5.76951,-6.65236 1.86763,-2.26582 3.67972,-4.57306 5.43624,-6.92177 1.75655,-2.3556 3.45061,-4.75267 5.08912,-7.18427 1.63851,-2.43849 3.2076,-4.91154 4.72809,-7.42604 1.51354,-2.50759 2.9646,-5.05661 4.35316,-7.64019 1.38857,-2.58359 2.70772,-5.20169 3.9713,-7.84744 1.25665,-2.64574 2.45084,-5.32603 3.57558,-8.02703 1.13168,-2.70791 2.18699,-5.44348 3.17981,-8.19974 0.99285,-2.75626 1.91624,-5.53327 2.77021,-8.33788 0.8609,-2.80464 1.64545,-5.63 2.36057,-8.46917 0.71511,-2.83916 1.3608,-5.69905 1.93706,-8.57275 0.56931,-2.86681 1.07614,-5.75433 1.50658,-8.64876 0.43047,-2.90134 0.7915,-5.80959 1.0831,-8.72474 0.28464,-2.91515 0.50681,-5.83033 0.65263,-8.75929 0.13882,-2.92206 0.21522,-5.85103 0.21522,-8.78 0,-2.92896 -0.0765,-5.85794 -0.21522,-8.78 -0.14574,-2.92896 -0.36799,-5.84413 -0.65263,-8.75928 -0.2916,-2.91516 -0.65263,-5.82341 -1.0831,-8.72474 -0.43044,-2.89443 -0.93727,-5.78195 -1.50658,-8.64876 -0.57626,-2.87371 -1.22195,-5.7336 -1.93706,-8.57276 -0.71512,-2.83916 -1.49967,-5.66453 -2.36057,-8.46916 -0.85397,-2.80461 -1.77736,-5.58162 -2.77021,-8.33789 -0.99282,-2.75626 -2.04813,-5.49182 -3.17981,-8.19974 -1.12474,-2.701002 -2.31893,-5.381296 -3.57558,-8.027035 -1.26358,-2.652653 -2.58273,-5.263853 -3.9713,-7.847431 -1.38856,-2.583577 -2.83962,-5.132617 -4.35316,-7.647102 -1.52049,-2.507589 -3.08958,-4.98064 -4.72809,-7.419135 -1.63851,-2.431599 -3.33257,-4.828659 -5.08912,-7.184269 -1.75652,-2.348711 -3.56861,-4.655952 -5.43624,-6.921761 -1.86763,-2.265807 -3.79079,-4.483258 -5.76951,-6.652352 -1.97871,-2.169109 -4.00602,-4.289833 -6.08888,-6.362227 -2.08285,-2.072376 -4.21431,-4.089507 -6.40131,-6.05827 -2.18005,-1.968764 -4.4087,-3.875368 -6.68596,-5.733604 -2.27726,-1.858237 -4.59617,-3.661209 -6.96369,-5.408917 -2.3675,-1.740813 -4.77668,-3.426344 -7.22749,-5.05663 -2.44388,-1.62337 -4.93638,-3.191459 -7.46356,-4.697406 -2.52026,-1.505928 -5.08218,-2.94969 -7.68574,-4.3312793 -2.59663,-1.3815901 -5.22798,-2.6941015 -7.88708,-3.9513475 -2.66606,-1.2503386 -5.35294,-2.4385078 -8.07454,-3.5575948 -2.72159,-1.11908708 -5.47095,-2.17600478 -8.2481,-3.1638404 -2.7702,-0.9878372 -5.56817,-1.906596 -8.38696,-2.7562725 -2.81879,-0.8496786 -5.65842,-1.6302758 -8.51194,-2.341796 -2.86045,-0.7115191 -5.72784,-1.353957 -8.62302,-1.9204092 -2.88822,-0.5733594 -5.79033,-1.0776417 -8.69939,-1.5059329 -2.916,-0.4282934 -5.83894,-0.7875074 -8.76881,-1.0707334 -2.92989,-0.290133 -5.86672,-0.50428 -8.81049,-0.649347 -2.94377,-0.145064 -5.88754,-0.214146 -8.8313,-0.214146 z m 0,0"
       id="path27" />
    <path
       style="fill:#452828;fill-opacity:1;fill-rule:nonzero;stroke:none;stroke-width:1.7729"
       d="m 119.27912,351.77831 c -102.233469,0 -185.401852,-82.70198 -185.401852,-184.35938 0,-101.657405 83.168383,-184.359369 185.401852,-184.359369 102.23347,0 185.40186,82.701964 185.40186,184.359369 0,101.6574 -83.16839,184.35938 -185.40186,184.35938 z m 0,-357.9423472 c -96.255678,0 -174.564075,77.8594932 -174.564075,173.5829672 0,95.72347 78.308397,173.58298 174.564075,173.58298 96.25567,0 174.56407,-77.85951 174.56407,-173.58298 0,-95.723474 -78.3084,-173.5829672 -174.56407,-173.5829672 z m 0,0"
       id="path29" />
    <path
       style="fill:#545ea1;fill-opacity:1;fill-rule:nonzero;stroke:none;stroke-width:1.7729"
       d="m 119.27912,17.309182 c -2.47165,0 -4.93636,0.06225 -7.40801,0.186516 -2.46471,0.117425 -4.92943,0.297045 -7.38719,0.538807 -2.45778,0.241781 -4.908604,0.54574 -7.352487,0.904944 -2.443883,0.359222 -4.880834,0.780606 -7.303888,1.257252 -2.423052,0.476645 -4.832223,1.01547 -7.227493,1.616456 -2.395289,0.594088 -4.776681,1.250336 -7.144208,1.961866 -2.36056,0.711513 -4.707239,1.485202 -7.033105,2.314157 -2.325848,0.828954 -4.630883,1.706274 -6.915069,2.652653 -2.277254,0.939481 -4.533679,1.934226 -6.76929,2.984234 -2.235594,1.050009 -4.443423,2.155281 -6.616525,3.308919 -2.18005,1.160536 -4.332338,2.369421 -6.449914,3.633569 -2.117557,1.264166 -4.207371,2.576663 -6.255506,3.944442 -2.055083,1.360863 -4.075454,2.776992 -6.061114,4.241486 -1.985641,1.464476 -3.929639,2.970422 -5.838925,4.531608 -1.909286,1.554295 -3.78386,3.163837 -5.609823,4.814848 -1.832912,1.644079 -3.624163,3.336524 -5.366821,5.077337 -1.749607,1.733897 -3.4506029,3.516144 -5.1099374,5.332929 -1.6593522,1.823698 -3.2700933,3.681934 -4.8391724,5.581623 -1.5690803,1.899689 -3.08956695,3.833915 -4.5614597,5.809592 -1.471875,1.968765 -2.8951575,3.97898 -4.2628962,6.023733 -1.3746887,2.037839 -2.6938349,4.117129 -3.9643693,6.224061 -1.270552,2.106932 -2.485544,4.241486 -3.651943,6.410577 -1.166399,2.162196 -2.277255,4.358909 -3.332569,6.576369 -1.055312,2.22436 -2.055083,4.46944 -2.99931,6.73525 -0.951159,2.27272 -1.839844,4.56618 -2.672986,6.88032 -0.82621,2.30727 -1.60381,4.64215 -2.318917,6.99085 -0.722056,2.35561 -1.374689,4.71813 -1.97871,7.10138 -0.597089,2.38325 -1.138636,4.78029 -1.62464,7.19117 -0.479055,2.41089 -0.902566,4.82865 -1.263585,7.26025 -0.361037,2.4247 -0.666514,4.86319 -0.909516,7.30862 -0.243002,2.44541 -0.423512,4.89774 -0.541546,7.35006 -0.124947,2.45232 -0.18746,4.90463 -0.18746,7.36387 0,2.45922 0.06257,4.91155 0.18746,7.36388 0.118015,2.45232 0.298544,4.90464 0.541546,7.35005 0.243002,2.44541 0.548479,4.88393 0.909516,7.30861 0.361019,2.4316 0.78453,4.84938 1.263585,7.26025 0.486004,2.41089 1.027551,4.80794 1.62464,7.19119 0.604021,2.38325 1.256654,4.74575 1.97871,7.10135 0.715107,2.34873 1.492707,4.68361 2.318917,6.99086 0.833142,2.31417 1.721827,4.60761 2.672986,6.88031 0.944227,2.26582 1.943998,4.51091 2.99931,6.73527 1.055314,2.21743 2.16617,4.41417 3.332569,6.57637 1.166399,2.16909 2.381391,4.30364 3.651943,6.41057 1.2705344,2.10692 2.5896806,4.18623 3.9643693,6.22406 1.3677387,2.04476 2.7910212,4.05498 4.2628962,6.02374 1.47189275,1.97568 2.9923794,3.9099 4.5614597,5.80959 1.5690791,1.89968 3.1798202,3.75793 4.8391724,5.58163 1.6593345,1.81678 3.3603304,3.59903 5.1099374,5.33293 1.742658,1.7408 3.533909,3.43326 5.366821,5.07733 1.825963,1.65101 3.700537,3.26056 5.609823,4.81485 1.909286,1.56119 3.853284,3.06713 5.838925,4.53161 1.98566,1.4645 4.006031,2.88063 6.061114,4.2415 2.048135,1.36777 4.137949,2.68027 6.255506,3.94443 2.117576,1.26415 4.269864,2.47303 6.449914,3.63357 2.173102,1.15364 4.380931,2.25891 6.616525,3.30891 2.235611,1.05002 4.492036,2.04476 6.76929,2.98425 2.284186,0.94638 4.589221,1.82369 6.915069,2.65265 2.325866,0.82896 4.672545,1.60264 7.033105,2.31415 2.367527,0.71153 4.748919,1.36778 7.144208,1.96186 2.39527,0.601 4.804441,1.13982 7.227493,1.61647 2.423054,0.47665 4.860005,0.89803 7.303888,1.25726 2.443883,0.35919 4.894707,0.66315 7.352487,0.90493 2.45776,0.24177 4.92248,0.42138 7.38719,0.5388 2.47165,0.12433 4.93636,0.17963 7.40801,0.17963 2.47166,0 4.93637,-0.0551 7.40802,-0.17963 2.46471,-0.11747 4.92943,-0.29703 7.38719,-0.5388 2.45778,-0.24178 4.9086,-0.54574 7.35248,-0.90493 2.44388,-0.35923 4.88084,-0.78061 7.30389,-1.25726 2.42305,-0.47665 4.83222,-1.01547 7.22749,-1.61647 2.39529,-0.59408 4.77668,-1.25033 7.14419,-1.96186 2.36058,-0.71151 4.70726,-1.48519 7.03313,-2.31415 2.32585,-0.82896 4.63086,-1.70627 6.90812,-2.65265 2.2842,-0.93949 4.54062,-1.93423 6.77622,-2.98425 2.23561,-1.05 4.44342,-2.15527 6.61654,-3.30891 2.18005,-1.16054 4.33234,-2.36942 6.44991,-3.63357 2.11756,-1.26416 4.20735,-2.57666 6.25551,-3.94443 2.05508,-1.36087 4.07546,-2.777 6.0611,-4.2415 1.98565,-1.46448 3.92966,-2.97042 5.83895,-4.53161 1.90927,-1.55429 3.78385,-3.16384 5.60982,-4.81485 1.83291,-1.64407 3.62415,-3.33653 5.36682,-5.07733 1.7496,-1.7339 3.4506,-3.51615 5.10993,-5.33293 1.65936,-1.8237 3.2701,-3.68195 4.83917,-5.58163 1.56908,-1.89969 3.08958,-3.83391 4.56144,-5.80959 1.47189,-1.96876 2.89518,-3.97898 4.26292,-6.02374 1.37469,-2.03783 2.69384,-4.11714 3.96436,-6.22406 1.27054,-2.10693 2.48556,-4.24148 3.65196,-6.41057 1.1664,-2.1622 2.27724,-4.35894 3.33256,-6.57637 1.05531,-2.22436 2.05509,-4.46945 2.9993,-6.73527 0.95116,-2.2727 1.83986,-4.56614 2.673,-6.88031 0.82621,-2.30725 1.60381,-4.64213 2.31891,-6.99086 0.72206,-2.3556 1.37469,-4.7181 1.97871,-7.10135 0.59709,-2.38325 1.13864,-4.7803 1.62464,-7.19119 0.47906,-2.41087 0.90257,-4.82865 1.26359,-7.26025 0.36103,-2.42468 0.66651,-4.8632 0.90951,-7.30861 0.24301,-2.44541 0.42351,-4.89773 0.54156,-7.35005 0.12495,-2.45233 0.1805,-4.90466 0.1805,-7.36388 0,-2.45924 -0.0555,-4.91155 -0.1805,-7.36387 -0.11807,-2.45232 -0.29855,-4.90465 -0.54156,-7.35006 -0.243,-2.44543 -0.54848,-4.88392 -0.90951,-7.30862 -0.36102,-2.4316 -0.78453,-4.84936 -1.26359,-7.26025 -0.486,-2.41088 -1.02755,-4.80792 -1.62464,-7.19117 -0.60402,-2.38325 -1.25665,-4.74577 -1.97871,-7.10138 -0.7151,-2.3487 -1.4927,-4.68358 -2.32584,-6.99085 -0.82621,-2.31414 -1.71491,-4.6076 -2.66607,-6.88032 -0.94421,-2.26581 -1.94399,-4.51089 -2.9993,-6.73525 -1.05532,-2.21746 -2.16616,-4.414173 -3.33256,-6.576369 -1.1664,-2.169091 -2.38142,-4.303645 -3.65196,-6.410577 -1.27052,-2.106932 -2.58967,-4.186222 -3.96436,-6.224061 -1.36774,-2.044753 -2.79103,-4.054968 -4.26292,-6.023733 -1.47186,-1.975677 -2.99236,-3.909903 -4.56144,-5.809592 -1.56907,-1.899689 -3.17981,-3.757925 -4.83917,-5.581623 -1.65933,-1.816785 -3.36033,-3.599032 -5.10993,-5.332929 -1.74267,-1.740813 -3.53391,-3.433258 -5.36682,-5.084253 -1.82597,-1.644095 -3.70055,-3.253637 -5.60982,-4.807932 -1.90929,-1.561186 -3.8533,-3.067132 -5.83895,-4.531608 -1.98564,-1.464494 -4.00602,-2.880623 -6.0611,-4.241486 -2.04816,-1.367779 -4.13795,-2.680276 -6.25551,-3.944442 -2.11757,-1.264148 -4.26986,-2.473033 -6.44991,-3.633569 -2.17312,-1.153638 -4.38093,-2.25891 -6.61654,-3.308919 -2.2356,-1.050008 -4.49202,-2.044753 -6.77622,-2.984234 -2.27726,-0.946379 -4.58227,-1.823699 -6.90812,-2.652653 -2.32587,-0.828955 -4.67255,-1.602644 -7.03313,-2.314157 -2.36751,-0.71153 -4.7489,-1.367778 -7.14419,-1.961866 -2.39527,-0.600986 -4.80444,-1.139811 -7.22749,-1.616456 -2.42305,-0.476646 -4.86001,-0.89803 -7.30389,-1.257252 -2.44388,-0.359204 -4.8947,-0.663163 -7.35248,-0.904944 -2.45776,-0.241762 -4.92248,-0.421382 -7.38719,-0.538807 -2.47165,-0.124321 -4.93636,-0.186516 -7.40802,-0.186516 z m 0,0"
       id="path31" />
    <path
       style="fill:#452828;fill-opacity:1;fill-rule:nonzero;stroke:none;stroke-width:1.7729"
       d="m 263.44741,128.83113 c -1.65935,0 -3.19372,-1.06384 -3.70056,-2.72175 -0.65261,-2.11382 -1.35383,-4.21384 -2.09672,-6.27933 -2.90906,-8.06848 -6.57489,-15.9228 -10.90029,-23.369587 -1.07613,-1.83751 -0.44434,-4.193119 1.4094,-5.256957 1.85375,-1.091442 4.21432,-0.449004 5.28352,1.409231 4.56145,7.840523 8.42166,16.123163 11.48347,24.606113 0.78453,2.18293 1.52049,4.40036 2.22172,6.62473 0.62484,2.03785 -0.52072,4.18622 -2.56193,4.80793 -0.38184,0.12432 -0.77065,0.17962 -1.13861,0.17962 z m 0,0"
       id="path33" />
    <path
       style="fill:#452828;fill-opacity:1;fill-rule:nonzero;stroke:none;stroke-width:1.7729"
       d="m 119.27912,321.64583 c -85.515087,0 -155.096314,-68.98279 -155.096314,-153.77099 0,-84.788168 69.567346,-153.76405 155.096314,-153.76405 44.38565,0 86.73009,18.91398 116.17472,51.885618 2.22171,2.479947 4.36704,5.05661 6.42906,7.695452 1.31219,1.678633 1.00673,4.09642 -0.67345,5.395107 -1.68017,1.33324 -4.11711,1.00166 -5.4293,-0.676976 -1.95788,-2.500673 -3.99908,-4.939186 -6.10971,-7.308607 C 201.69074,39.773827 161.46388,21.80626 119.28607,21.80626 c -81.252173,0 -147.355052,65.521898 -147.355052,146.06858 0,80.53981 66.095929,146.06862 147.348102,146.06862 81.25218,0 147.35504,-65.52881 147.35504,-146.06862 0,-7.35005 -0.55543,-14.72083 -1.64546,-21.91199 -0.31935,-2.10002 1.13169,-4.06189 3.24927,-4.37966 2.11755,-0.33157 4.08933,1.12599 4.40176,3.22601 1.15252,7.57111 1.73571,15.32875 1.73571,23.06564 0,84.7882 -69.58123,153.77099 -155.09632,153.77099 z m 0,0"
       id="path35" />
    <path
       style="fill:#fdfdee;fill-opacity:1;fill-rule:nonzero;stroke:none;stroke-width:1.7729"
       d="m 208.61276,104.52895 c 2.20784,-12.199446 0.8887,-26.934101 -4.06155,-41.696397 -24.93178,0 -44.13569,16.855399 -47.41272,19.915623 H 85.814583 C 82.530611,79.694866 63.333633,62.832553 38.408797,62.832553 33.94456,76.130372 32.444905,89.386723 33.784864,100.81248 19.760316,113.47474 10.901231,131.691 10.901231,152.02111 c 0,38.27004 31.18729,69.27984 69.6715,69.27984 H 94.777805 C 83.620636,226.38519 75.476674,236.69876 73.442422,249.13307 60.910581,250.40414 45.747396,249.24355 38.408797,238.3014 24.703625,217.86079 17.85103,217.86079 10.998435,217.86079 c -6.8456458,0 -6.8456458,6.81124 0,13.62937 6.852595,6.81124 6.852595,6.81124 13.70519,20.43373 5.644535,11.22541 20.217579,23.93604 48.134776,20.48207 v 25.64232 c 0,5.02206 0.13188,8.69019 1.937048,13.05601 16.773923,5.77504 48.738821,10.09943 88.389431,0.24178 1.59686,-4.14477 2.56192,-8.59349 2.56192,-13.29779 v -42.9122 c 0,-15.05932 -9.02572,-27.94957 -21.94636,-33.84205 h 14.20507 c 38.48421,0 69.6715,-31.00978 69.6715,-69.27984 0,-18.39586 -7.26916,-35.08546 -19.04425,-47.48524 z m 0,0"
       id="path45" />
    <path
       style="fill:#452828;fill-opacity:1;fill-rule:nonzero;stroke:none;stroke-width:1.7729"
       d="m 116.94632,321.07248 c -22.515653,0 -37.762159,-4.36584 -43.441405,-6.32079 -1.048382,-0.35923 -1.888456,-1.14672 -2.311968,-2.16909 -2.068981,-4.99445 -2.23561,-9.16686 -2.23561,-14.52743 v -21.3939 C 36.673089,278.94089 24.321757,259.79895 21.239141,253.65777 14.66426,240.58794 14.66426,240.58794 8.2629566,234.21881 2.9377792,228.92732 0.82022147,223.18682 2.611473,218.90388 c 1.2913654,-3.09475 4.3462189,-4.88391 8.380013,-4.88391 9.240935,0 16.843367,1.58883 30.624913,22.15379 5.845875,8.71783 18.238868,9.9889 28.59761,9.37409 1.902336,-7.88888 6.074977,-14.94881 11.92087,-20.37846 h -1.562148 c -40.546243,0 -73.545615,-32.81276 -73.545615,-73.12755 0,-19.84655 8.255064,-38.95395 22.710073,-52.742207 -1.055313,-11.757336 0.659564,-24.744282 4.998852,-37.689776 0.527648,-1.568107 2.006473,-2.631927 3.672756,-2.631927 24.230559,0 43.184535,14.87972 48.905442,19.922519 h 68.331531 c 5.7209,-5.042799 24.68183,-19.922519 48.90544,-19.922519 1.65933,0 3.13816,1.06382 3.66582,2.631927 4.82528,14.368536 6.4013,29.082466 4.5198,41.703303 12.1361,13.44978 18.78735,30.66438 18.78735,48.70795 0,40.3217 -32.99242,73.12755 -73.53867,73.12755 h -1.55519 c 8.24117,7.65402 13.16364,18.47878 13.16364,29.99433 v 42.91218 c 0,4.87702 -0.95118,9.80239 -2.8188,14.66558 -0.4513,1.17436 -1.45106,2.05857 -2.67994,2.36252 -17.94727,4.46943 -33.82556,5.98921 -47.1489,5.98921 z M 77.75393,308.05099 c 10.365671,3.25362 40.00472,10.1754 82.4533,0.0551 1.09696,-3.36417 1.64545,-6.72833 1.64545,-10.05107 v -42.91218 c 0,-12.99387 -7.72045,-24.89626 -19.68298,-30.33282 -1.65934,-0.75987 -2.56192,-2.54902 -2.17312,-4.32437 0.38187,-1.76152 1.9579,-3.03258 3.78386,-3.03258 h 14.20507 c 36.28333,0 65.79739,-29.35188 65.79739,-65.43211 0,-16.70341 -6.38047,-32.62625 -17.98892,-44.85332 -0.84009,-0.88421 -1.20806,-2.11384 -0.98589,-3.31581 1.98567,-11.018188 0.89562,-24.094935 -3.06873,-37.102608 -21.96024,1.174349 -38.7064,15.77775 -41.95565,18.796522 -0.71511,0.670078 -1.66627,1.050009 -2.65216,1.050009 H 85.807633 c -0.985871,0 -1.937048,-0.379931 -2.652152,-1.050009 -3.242314,-3.025599 -19.995409,-17.622103 -41.955645,-18.796451 -3.554739,11.681347 -4.79751,23.245251 -3.57557,33.607167 0.145745,1.22963 -0.319375,2.45233 -1.235823,3.29511 -13.73297,12.40667 -21.620047,30.04268 -21.620047,48.36947 0,36.08022 29.521007,65.4321 65.804335,65.4321 h 14.205074 c 1.819031,0 3.38811,1.26415 3.77691,3.03258 0.3888,1.76154 -0.506835,3.56451 -2.166169,4.31748 -10.178214,4.64214 -17.336301,13.96787 -19.127552,24.95151 -0.284664,1.72699 -1.687114,3.03949 -3.429772,3.2122 -18.544345,1.86515 -31.909329,-2.46614 -38.650839,-12.52412 -12.559622,-18.73436 -18.211106,-18.73436 -24.188897,-18.73436 -0.97894,0 -1.3052474,0.22106 -1.3052474,0.22796 -0.145744,0.44902 0.4165624,3.21912 4.0476754,6.83197 7.303887,7.25334 7.56077,7.79217 14.427246,21.44229 2.659105,5.27074 13.698241,22.19523 44.198186,18.38894 1.096957,-0.145 2.214763,0.20033 3.040955,0.93259 0.82621,0.72533 1.312214,1.77533 1.312214,2.88752 v 25.63539 c -0.01422,4.04117 0.0695,6.92179 1.041415,9.99582 z m 0,0"
       id="path47" />
    <path
       style="fill:#fdfdee;fill-opacity:1;fill-rule:nonzero;stroke:none;stroke-width:1.7729"
       d="m 205.18995,174.38215 c -6.59571,14.53432 -21.07156,26.60941 -46.55181,28.64035"
       id="path49" />
    <path
       style="fill:#452828;fill-opacity:1;fill-rule:nonzero;stroke:none;stroke-width:1.7729"
       d="m 158.6312,204.94291 c -0.99978,0 -1.8468,-0.76677 -1.93012,-1.76843 -0.0833,-1.05692 0.70123,-1.98258 1.77044,-2.0724 27.84082,-2.21744 39.81028,-16.18531 44.948,-27.50054 0.4374,-0.98092 1.57603,-1.40921 2.5619,-0.96021 0.96506,0.43522 1.40941,1.56811 0.96506,2.53524 -7.87317,17.35277 -24.98036,27.92192 -48.16253,29.75944 -0.0485,0.008 -0.10416,0.008 -0.15269,0.008 z m 0,0"
       id="path51" />
    <path
       style="fill:#fdfdee;fill-opacity:1;fill-rule:nonzero;stroke:none;stroke-width:1.7729"
       d="m 209.01547,145.59672 c 0.81231,5.48492 0.79841,11.30832 -0.21524,17.06263"
       id="path53" />
    <path
       style="fill:#452828;fill-opacity:1;fill-rule:nonzero;stroke:none;stroke-width:1.7729"
       d="m 208.80023,164.58668 c -0.11807,0 -0.22217,-0.008 -0.34019,-0.0345 -1.05531,-0.17278 -1.75656,-1.17437 -1.57603,-2.22437 0.94423,-5.33294 1.0206,-11.0182 0.21521,-16.45473 -0.16653,-1.05002 0.56932,-2.03095 1.62463,-2.17601 1.02755,-0.13812 2.0412,0.56646 2.19395,1.62337 0.88174,5.91321 0.80537,11.86095 -0.22217,17.67053 -0.15267,0.93948 -0.972,1.59574 -1.8954,1.59574 z m 0,0"
       id="path55" />
    <path
       style="fill:#fdfdee;fill-opacity:1;fill-rule:nonzero;stroke:none;stroke-width:1.7729"
       d="m 195.26862,119.83697 c 4.63783,3.28128 8.40083,8.59348 10.90026,14.98335"
       id="path57" />
    <path
       style="fill:#452828;fill-opacity:1;fill-rule:nonzero;stroke:none;stroke-width:1.7729"
       d="m 206.16888,136.74072 c -0.77759,0 -1.50658,-0.46974 -1.80513,-1.2227 -2.43695,-6.22406 -5.97087,-11.10108 -10.21988,-14.09913 -0.86785,-0.61482 -1.07613,-1.81679 -0.45821,-2.68719 0.63177,-0.87041 1.83983,-1.07765 2.7077,-0.46284 4.86,3.44016 8.86601,8.91817 11.58067,15.84685 0.38186,0.99474 -0.11105,2.10692 -1.10392,2.49375 -0.2291,0.0897 -0.4721,0.13123 -0.70123,0.13123 z m 0,0"
       id="path59" />
  </g>
</svg>
