<?xml version="1.0" encoding="UTF-8" standalone="no"?>
<svg
   xmlns:dc="http://purl.org/dc/elements/1.1/"
   xmlns:cc="http://creativecommons.org/ns#"
   xmlns:rdf="http://www.w3.org/1999/02/22-rdf-syntax-ns#"
   xmlns:svg="http://www.w3.org/2000/svg"
   xmlns="http://www.w3.org/2000/svg"
   xmlns:sodipodi="http://sodipodi.sourceforge.net/DTD/sodipodi-0.dtd"
   xmlns:inkscape="http://www.inkscape.org/namespaces/inkscape"
   width="375pt"
   height="374.999991pt"
   viewBox="0 0 375 374.999991"
   version="1.2"
   id="svg43"
   sodipodi:docname="linkedin.svg"
   inkscape:version="1.0.2 (e86c870879, 2021-01-15)">
  <metadata
     id="metadata49">
    <rdf:RDF>
      <cc:Work
         rdf:about="">
        <dc:format>image/svg+xml</dc:format>
        <dc:type
           rdf:resource="http://purl.org/dc/dcmitype/StillImage" />
      </cc:Work>
    </rdf:RDF>
  </metadata>
  <defs
     id="defs47" />
  <sodipodi:namedview
     pagecolor="#ffffff"
     bordercolor="#666666"
     borderopacity="1"
     objecttolerance="10"
     gridtolerance="10"
     guidetolerance="10"
     inkscape:pageopacity="0"
     inkscape:pageshadow="2"
     inkscape:window-width="1920"
     inkscape:window-height="1020"
     id="namedview45"
     showgrid="false"
     inkscape:zoom="1.2091526"
     inkscape:cx="170.91185"
     inkscape:cy="212.33321"
     inkscape:window-x="0"
     inkscape:window-y="28"
     inkscape:window-maximized="1"
     inkscape:current-layer="surface1" />
  <g
     id="surface1">
    <path
       style="fill:#fdfaee;fill-opacity:1;fill-rule:nonzero;stroke:none;stroke-width:2.03077"
       d="m 368.0909,83.646917 c -14.83408,-0.975724 -27.59776,9.2733 -28.51796,22.885783 -0.11906,1.68966 -0.0396,3.35552 0.20626,4.96586 -2.86372,-3.2286 -7.09975,-5.41803 -11.96247,-5.74327 -8.90048,-0.58702 -16.58725,5.29109 -17.69781,13.28723 -1.61826,-0.44421 -3.30793,-0.73773 -5.06106,-0.85671 -12.97785,-0.84881 -24.155,8.11511 -24.94827,20.02207"
       id="path14" />
    <path
       style="fill:#452828;fill-opacity:1;fill-rule:nonzero;stroke:none;stroke-width:2.03077"
       d="m 280.11753,140.46869 c -0.0556,0 -0.10319,0 -0.15065,0 -1.24544,-0.0794 -2.18943,-1.15023 -2.11009,-2.39567 0.89638,-13.12858 13.06511,-22.97304 27.3598,-22.12423 1.05505,0.0715 2.11801,0.1983 3.18894,0.39663 2.34807,-7.93268 10.45525,-13.47761 19.56198,-12.82715 3.35552,0.21419 6.57618,1.26924 9.34469,2.99855 0,-0.0476 0.008,-0.0873 0.008,-0.127 0.99157,-14.826172 14.86581,-25.908114 30.92155,-24.979992 1.24545,0.07939 2.18943,1.158163 2.10216,2.403601 -0.0794,1.245428 -1.12644,2.173549 -2.4036,2.102162 -13.66005,-0.928132 -25.28143,8.432423 -26.11436,20.783599 -0.0952,1.47549 -0.0317,2.98269 0.19038,4.48197 0.15858,0.99158 -0.37283,1.96729 -1.2851,2.38773 -0.88845,0.42837 -1.97522,0.20626 -2.64156,-0.54735 -2.5702,-2.90335 -6.36202,-4.71993 -10.40768,-4.98965 -7.69471,-0.5077 -14.36608,4.48196 -15.31006,11.34372 -0.0953,0.64255 -0.45218,1.21371 -0.99952,1.57861 -0.54736,0.35697 -1.20577,0.46802 -1.84038,0.2935 -1.53895,-0.4125 -3.08582,-0.67428 -4.6089,-0.77738 -11.7245,-0.74568 -21.83072,7.27426 -22.55259,17.91197 -0.0873,1.17403 -1.07091,2.0863 -2.25288,2.0863 z m 0,0"
       id="path16" />
    <path
       style="fill:#006bee;fill-opacity:1;fill-rule:nonzero;stroke:none;stroke-width:2.03077"
       d="M 303.66172,365.56632 H 71.297766 c -34.023254,0 -61.8510928,-27.83577 -61.8510928,-61.85901 V 71.343353 c 0,-34.015325 27.8278388,-61.8510931 61.8510928,-61.8510931 H 303.66172 c 34.02323,0 61.85107,27.8357681 61.85107,61.8510931 V 303.70731 c 0.008,34.02324 -27.82784,61.85901 -61.85107,61.85901 z m 0,0"
       id="path22" />
    <path
       style="fill:#452828;fill-opacity:1;fill-rule:nonzero;stroke:none;stroke-width:2.03077"
       d="M 303.66172,371.88867 H 71.297766 c -37.600885,0 -68.1813549,-30.58841 -68.1813549,-68.18136 V 71.343353 C 3.1164111,33.750387 33.7048,3.1699165 71.297766,3.1699165 H 303.66172 c 37.60088,0 68.18135,30.5884095 68.18135,68.1734365 V 303.70731 c 0,37.60089 -30.58047,68.18136 -68.18135,68.18136 z M 71.297766,15.814593 c -30.628082,0 -55.52874,24.908617 -55.52874,55.52876 V 303.70731 c 0,30.62806 24.900658,55.53665 55.52874,55.53665 H 303.66172 c 30.62012,0 55.52873,-24.90859 55.52873,-55.53665 V 71.343353 c 0,-30.620143 -24.91653,-55.52876 -55.52873,-55.52876 z m 0,0"
       id="path24" />
    <path
       style="fill:#fdfaee;fill-opacity:1;fill-rule:nonzero;stroke:none;stroke-width:2.03077"
       d="M 289.95406,340.13417 H 84.997492 c -27.566054,0 -50.126581,-22.56055 -50.126581,-50.12659 V 85.050998 c 0,-27.573973 22.560527,-50.126581 50.126581,-50.126581 H 289.95406 c 27.57397,0 50.12658,22.552608 50.12658,50.126581 V 290.00758 c 0,27.56604 -22.55261,50.12659 -50.12658,50.12659 z m 0,0"
       id="path26" />
    <path
       style="fill:#452828;fill-opacity:1;fill-rule:nonzero;stroke:none;stroke-width:2.03077"
       d="M 293.7062,343.2993 H 81.25327 c -27.320146,0 -49.539571,-22.22737 -49.539571,-49.54751 V 81.298857 c 0,-27.312217 22.219425,-49.53957 49.539571,-49.53957 h 202.30705 c 1.74518,0 3.16514,1.419958 3.16514,3.16513 0,1.745193 -1.41996,3.157213 -3.16514,3.157213 H 81.25327 c -23.829771,0 -43.217228,19.387457 -43.217228,43.217227 V 293.74387 c 0,23.82975 19.387457,43.21721 43.217228,43.21721 H 293.7062 c 23.82977,0 43.21722,-19.38746 43.21722,-43.21721 V 176.22126 c 0,-1.74519 1.41996,-3.16515 3.15722,-3.16515 1.74519,0 3.16513,1.41996 3.16513,3.16515 v 117.52261 c 0,27.32806 -22.21942,49.55543 -49.53957,49.55543 z m 0,0"
       id="path28" />
    <path
       style="fill:#452828;fill-opacity:1;fill-rule:nonzero;stroke:none;stroke-width:2.03077"
       d="m 340.08064,162.43427 c -1.73726,0 -3.15722,-1.41995 -3.15722,-3.16513 V 136.661 c 0,-1.74518 1.41996,-3.16513 3.15722,-3.16513 1.74519,0 3.16513,1.41995 3.16513,3.16513 v 22.60814 c 0,1.74518 -1.41994,3.16513 -3.16513,3.16513 z m 0,-33.91219 c -1.73726,0 -3.15722,-1.41994 -3.15722,-3.16514 v -11.29613 c 0,-1.74519 1.41996,-3.16515 3.15722,-3.16515 1.74519,0 3.16513,1.41996 3.16513,3.16515 v 11.29613 c 0,1.7452 -1.41994,3.16514 -3.16513,3.16514 z m 0,0"
       id="path30" />
    <path
       style="fill:#1178d7;fill-opacity:1;fill-rule:nonzero;stroke:none;stroke-width:2.03077"
       d="m 269.63847,203.33514 v 54.87827 h -32.34946 l -0.45216,-54.4023 c 0,-13.77905 -6.26682,-23.57592 -18.63386,-23.57592 -9.43988,0 -15.03242,6.31442 -17.50741,12.4543 -0.88847,2.17355 -1.15023,5.2435 -1.15023,8.30552 v 57.2184 h -32.76196 c 0,0 0.44421,-92.82818 0,-102.42672 h 32.76196 v 15.80981 c -0.0715,0.11113 -0.14272,0.23799 -0.22214,0.35697 h 0.22214 v -0.35697 c 4.55334,-7.60742 12.86678,-16.4603 31.01675,-16.4603 22.4812,-0.0477 39.07637,13.96151 39.07637,48.19894 z m -140.0752,-95.85051 c -10.11416,0 -16.72208,6.93315 -16.72208,16.05573 0,8.91634 6.40959,16.06368 16.33338,16.06368 h 0.19038 c 10.32041,0 16.72208,-7.14734 16.72208,-16.06368 -0.21418,-9.11464 -6.4334,-16.05573 -16.52376,-16.05573 z M 113.29334,258.21341 H 145.6428 V 155.78669 h -32.34946 z m 0,0"
       id="path32" />
    <path
       style="fill:#452828;fill-opacity:1;fill-rule:nonzero;stroke:none;stroke-width:2.03077"
       d="m 269.63847,261.37854 h -32.34946 c -1.72933,0 -3.14927,-1.39615 -3.15721,-3.13339 l -0.44422,-54.41024 c 0,-6.1637 -1.50722,-20.43457 -15.47665,-20.43457 -9.32883,0 -13.30311,7.32978 -14.57233,10.47112 -0.61082,1.49136 -0.92018,3.88701 -0.92018,7.12355 v 57.2184 c 0,1.74518 -1.41996,3.16513 -3.16515,3.16513 h -32.76196 c -0.84086,0 -1.64999,-0.33317 -2.237,-0.92811 -0.6029,-0.59496 -0.93607,-1.41202 -0.92813,-2.2529 0,-0.92811 0.43629,-92.86784 0,-102.27599 -0.0317,-0.87258 0.27764,-1.69758 0.88054,-2.33219 0.59492,-0.6267 1.41993,-0.97573 2.28459,-0.97573 h 32.76196 c 1.74519,0 3.16515,1.41994 3.16515,3.16513 v 6.54447 c 6.91729,-6.95697 16.10332,-10.36009 27.85161,-10.36009 0.0317,0 0.0715,0 0.0952,0 11.93073,0 21.64033,3.64904 28.83527,10.84398 8.82906,8.80526 13.30309,22.44154 13.30309,40.52011 v 54.87825 c 0.008,1.75312 -1.412,3.17307 -3.16513,3.17307 z m -29.20813,-6.32234 h 26.05885 v -51.72106 c 0,-16.34132 -3.84735,-28.47037 -11.44685,-36.05401 -5.98125,-5.96537 -14.18362,-8.99566 -24.3771,-8.99566 -0.0238,0 -0.0635,0 -0.0873,0 -17.06319,0 -24.21845,8.24205 -28.10548,14.59613 -0.90432,2.30841 -4.57715,2.75264 -5.76706,0.61875 -0.47596,-0.84086 -0.61873,-1.83244 -0.30144,-2.70504 v -11.85935 h -26.36024 c 0.26973,16.93627 0,80.82603 -0.0635,96.1123 h 26.42374 v -54.06119 c 0,-4.12499 0.45218,-7.23459 1.38029,-9.50334 3.6411,-9.01945 11.29612,-14.41368 20.43459,-14.41368 13.44588,0 21.79897,10.24109 21.79897,26.72518 z m -94.78754,6.32234 h -32.34946 c -1.74518,0 -3.1572,-1.41995 -3.1572,-3.16513 V 155.78669 c 0,-1.74519 1.41202,-3.16515 3.1572,-3.16515 h 32.34946 c 1.74519,0 3.16513,1.41996 3.16513,3.16515 v 102.42672 c 0,1.74518 -1.41994,3.16513 -3.16513,3.16513 z m -29.18433,-6.32234 h 26.01126 v -96.11232 h -26.01126 z m 12.9144,-112.28703 c -11.4865,0 -19.68889,-8.09133 -19.68889,-19.22881 0,-11.13748 8.36105,-19.22088 19.87929,-19.22088 11.31199,0 19.41125,7.87716 19.69683,19.14155 0,11.21681 -8.36896,19.30814 -19.88723,19.30814 z m 0.1904,-32.11941 c -8.09927,0 -13.54901,5.18796 -13.54901,12.89852 0,7.59952 5.418,12.90648 13.16824,12.90648 8.3055,0 13.75526,-5.18798 13.75526,-12.90648 -0.20624,-7.79781 -5.44182,-12.89852 -13.37449,-12.89852 z m 0,0"
       id="path34" />
  </g>
</svg>
