<?xml version="1.0" encoding="UTF-8" standalone="no"?>
<svg
   xmlns:dc="http://purl.org/dc/elements/1.1/"
   xmlns:cc="http://creativecommons.org/ns#"
   xmlns:rdf="http://www.w3.org/1999/02/22-rdf-syntax-ns#"
   xmlns:svg="http://www.w3.org/2000/svg"
   xmlns="http://www.w3.org/2000/svg"
   xmlns:sodipodi="http://sodipodi.sourceforge.net/DTD/sodipodi-0.dtd"
   xmlns:inkscape="http://www.inkscape.org/namespaces/inkscape"
   width="375pt"
   height="374.999991pt"
   viewBox="0 0 375 374.999991"
   version="1.2"
   id="svg43"
   sodipodi:docname="youtube.svg"
   inkscape:version="1.0.2 (e86c870879, 2021-01-15)">
  <metadata
     id="metadata49">
    <rdf:RDF>
      <cc:Work
         rdf:about="">
        <dc:format>image/svg+xml</dc:format>
        <dc:type
           rdf:resource="http://purl.org/dc/dcmitype/StillImage" />
      </cc:Work>
    </rdf:RDF>
  </metadata>
  <defs
     id="defs47" />
  <sodipodi:namedview
     pagecolor="#ffffff"
     bordercolor="#666666"
     borderopacity="1"
     objecttolerance="10"
     gridtolerance="10"
     guidetolerance="10"
     inkscape:pageopacity="0"
     inkscape:pageshadow="2"
     inkscape:window-width="1920"
     inkscape:window-height="1020"
     id="namedview45"
     showgrid="false"
     inkscape:zoom="1.2091526"
     inkscape:cx="188.63338"
     inkscape:cy="252.94066"
     inkscape:window-x="0"
     inkscape:window-y="28"
     inkscape:window-maximized="1"
     inkscape:current-layer="svg43" />
  <g
     id="surface1"
     transform="matrix(2.0315628,0,0,1.9167038,-215.28246,-170.64304)">
    <path
       style="fill:#fdfaee;fill-opacity:1;fill-rule:nonzero;stroke:none"
       d="m 287.33203,140.19922 c -7.30469,-0.48047 -13.58984,4.5664 -14.04297,11.26953 -0.0586,0.83203 -0.0195,1.64844 0.10156,2.44531 -1.41015,-1.59375 -3.49609,-2.66797 -5.89062,-2.82812 -4.38281,-0.28907 -8.16797,2.60547 -8.71484,6.54297 -0.79688,-0.21875 -1.62891,-0.36329 -2.49219,-0.42188 -6.39063,-0.41797 -11.89453,3.99219 -12.28516,9.85547"
       id="path10" />
    <path
       style="fill:#452828;fill-opacity:1;fill-rule:nonzero;stroke:none"
       d="m 244.01172,168.17969 c -0.0273,0 -0.0469,0 -0.0742,0 -0.61328,-0.0391 -1.07813,-0.57032 -1.03125,-1.1836 0.4375,-6.46093 6.47266,-11.35156 13.46484,-10.89453 0.52344,0.0391 1.04297,0.0977 1.57422,0.19922 1.15625,-3.90625 5.19531,-6.62891 9.63281,-6.32031 1.67579,0.11328 3.2461,0.62109 4.60157,1.46875 0,-0.0156 0,-0.0352 0.004,-0.0508 0.48828,-7.30078 7.22657,-12.8125 15.22266,-12.30078 0.61328,0.0391 1.07812,0.57031 1.03125,1.18359 -0.0352,0.60937 -0.46094,1.08984 -1.18359,1.03516 -6.73438,-0.45313 -12.44532,4.15234 -12.85938,10.23046 -0.0469,0.73047 -0.0156,1.47266 0.0937,2.21094 0.0742,0.48438 -0.18359,0.96485 -0.63281,1.17188 -0.45313,0.19922 -0.97266,0.0977 -1.30078,-0.27344 -1.26563,-1.42578 -3.13282,-2.32031 -5.125,-2.45313 -3.77735,-0.20703 -7.07032,2.21094 -7.53516,5.58594 -0.0508,0.31641 -0.22266,0.59766 -0.49219,0.77344 -0.26562,0.17969 -0.58593,0.23828 -0.90234,0.14844 -0.78125,-0.21094 -1.52344,-0.33985 -2.27734,-0.38282 -5.80469,-0.41406 -10.7461,3.58204 -11.10157,8.82032 -0.043,0.58203 -0.52734,1.03125 -1.10937,1.03125 z m 0,0"
       id="path12" />
    <path
       style="fill:#fdfaee;fill-opacity:1;fill-rule:nonzero;stroke:none"
       d="m 354.28516,146.94531 c -6.86719,-3.23437 -14.80079,-0.94922 -17.72657,5.11328 -0.36718,0.75391 -0.63281,1.53125 -0.8125,2.32032"
       id="path14" />
    <path
       style="fill:#f3979c;fill-opacity:1;fill-rule:nonzero;stroke:none"
       d="M 255.60547,279.01953 H 141.18359 c -16.7539,0 -30.45703,-13.70312 -30.45703,-30.45703 V 134.14062 c 0,-16.74999 13.70313,-30.45703 30.45703,-30.45703 h 114.42188 c 16.7539,0 30.45703,13.70704 30.45703,30.45703 V 248.5625 c 0.004,16.75391 -13.70313,30.45703 -30.45703,30.45703 z m 0,0"
       id="path18" />
    <path
       style="fill:#452828;fill-opacity:1;fill-rule:nonzero;stroke:none"
       d="M 255.60547,282.14062 H 141.1875 c -18.51562,0 -33.57812,-15.0625 -33.57812,-33.57421 V 134.14062 c 0,-18.51171 15.0625,-33.57031 33.57812,-33.57031 h 114.41797 c 18.51562,0 33.57422,15.0625 33.57422,33.57031 V 248.5625 c 0,18.51562 -15.0586,33.57812 -33.57422,33.57812 z M 141.1875,106.79688 c -15.07812,0 -27.34375,12.26562 -27.34375,27.34374 V 248.5625 c 0,15.08203 12.26953,27.34375 27.34375,27.34375 h 114.41797 c 15.07812,0 27.34375,-12.26172 27.34375,-27.34375 V 134.14062 c 0,-15.07812 -12.26953,-27.34374 -27.34375,-27.34374 z m 0,0"
       id="path20" />
    <path
       style="fill:#fdfaee;fill-opacity:1;fill-rule:nonzero;stroke:none"
       d="M 248.85547,266.5 H 147.92969 c -13.57422,0 -24.6836,-11.10938 -24.6836,-24.68359 V 140.89062 c 0,-13.57812 11.10938,-24.68359 24.6836,-24.68359 h 100.92578 c 13.57812,0 24.68359,11.10547 24.68359,24.68359 v 100.92579 c 0,13.57421 -11.10547,24.68359 -24.68359,24.68359 z m 0,0"
       id="path22" />
    <path
       style="fill:#452828;fill-opacity:1;fill-rule:nonzero;stroke:none"
       d="M 250.70312,268.05469 H 146.08594 c -13.44922,0 -24.39063,-10.94141 -24.39063,-24.39453 V 139.04687 c 0,-13.44921 10.94141,-24.39453 24.39063,-24.39453 h 99.625 c 0.85937,0 1.55859,0.69922 1.55859,1.5586 0,0.85937 -0.69531,1.55469 -1.55859,1.55469 h -99.625 c -11.73438,0 -21.28125,9.54687 -21.28125,21.28124 v 104.61329 c 0,11.73437 9.54687,21.28125 21.28125,21.28125 h 104.61718 c 11.73829,0 21.28516,-9.54688 21.28516,-21.28125 v -57.8711 c 0,-0.85937 0.69531,-1.55859 1.55859,-1.55859 0.86329,0 1.55469,0.69922 1.55469,1.55859 v 57.8711 c -0.004,13.45312 -10.94531,24.39453 -24.39844,24.39453 z m 0,0"
       id="path24" />
    <path
       style="fill:#452828;fill-opacity:1;fill-rule:nonzero;stroke:none"
       d="m 273.54687,178.99609 c -0.85937,0 -1.55859,-0.69922 -1.55859,-1.55859 v -11.13281 c 0,-0.85938 0.69531,-1.5586 1.55859,-1.5586 0.86329,0 1.55469,0.69922 1.55469,1.5586 v 11.13281 c -0.004,0.85937 -0.69922,1.55859 -1.55469,1.55859 z m 0,-16.69922 c -0.85937,0 -1.55859,-0.69921 -1.55859,-1.55859 v -5.56641 c 0,-0.85546 0.69531,-1.55468 1.55859,-1.55468 0.86329,0 1.55469,0.69922 1.55469,1.55468 v 5.56641 c -0.004,0.85938 -0.69922,1.55859 -1.55469,1.55859 z m 0,0"
       id="path26" />
    <path
       style="fill:#ee3d51;fill-opacity:1;fill-rule:nonzero;stroke:none"
       d="m 242.98828,171.95312 c 0,0 -0.88672,-6.6914 -3.61719,-9.64062 -3.46093,-3.85938 -7.33984,-3.88281 -9.11718,-4.10547 -12.73438,-0.98828 -31.83594,-0.98828 -31.83594,-0.98828 h -0.0469 c 0,0 -19.10156,0 -31.83593,0.98828 -1.78125,0.21875 -5.65625,0.24219 -9.1211,4.10547 -2.72656,2.94531 -3.61328,9.64062 -3.61328,9.64062 0,0 -0.91406,7.85157 -0.91406,15.70313 v 7.36328 c 0,7.85547 0.91406,15.70703 0.91406,15.70703 0,0 0.88672,6.6875 3.61328,9.62891 3.46485,3.86328 8.00781,3.74609 10.03516,4.15234 7.28515,0.74219 30.94531,0.97266 30.94531,0.97266 0,0 19.125,-0.0352 31.85938,-1.01172 1.77734,-0.22656 5.65234,-0.24609 9.11718,-4.10938 2.73047,-2.9414 3.61719,-9.6289 3.61719,-9.6289 0,0 0.91406,-7.85156 0.91406,-15.70703 v -7.36328 c -0.004,-7.85547 -0.91406,-15.70704 -0.91406,-15.70704 z m 0,0"
       id="path28" />
    <path
       style="fill:#452828;fill-opacity:1;fill-rule:nonzero;stroke:none"
       d="m 198.39844,227.21484 c -0.99219,-0.008 -23.84766,-0.23828 -31.125,-0.98437 -0.47266,-0.0859 -0.85157,-0.13281 -1.27735,-0.1836 -2.45703,-0.3164 -6.5664,-0.84375 -9.86718,-4.53125 -2.9961,-3.22656 -3.94922,-9.82031 -4.04688,-10.55859 -0.0391,-0.35547 -0.92187,-8.06641 -0.92187,-15.93359 v -7.35938 c 0,-7.85937 0.88281,-15.57812 0.91796,-15.90234 0.10157,-0.76953 1.05469,-7.36328 4.07032,-10.61719 3.5625,-3.97266 7.51562,-4.375 9.64843,-4.59375 l 0.52344,-0.0547 c 12.73828,-0.98828 31.85938,-1.0039 32.05078,-1.0039 0.23828,0 19.35938,0.0117 32.01563,0.99218 l 0.60547,0.0625 c 2.1289,0.21875 6.08984,0.6211 9.67187,4.61329 2.9961,3.23828 3.94531,9.82812 4.04297,10.57031 0,0.008 0,0.0195 0.004,0.0273 0.0352,0.32422 0.92187,8.04297 0.92187,15.90625 v 7.35938 c 0,7.86718 -0.88672,15.58203 -0.92187,15.90625 -0.10157,0.76953 -1.05469,7.35937 -4.06641,10.60937 -3.55469,3.96485 -7.50781,4.3711 -9.62891,4.59375 l -0.54296,0.0586 c -12.74219,0.98046 -31.88282,1.02343 -32.07422,1.02343 z m 0.0195,-68.25 c -0.23828,0 -19.22266,0.008 -31.75,0.97657 L 166.14453,160 c -1.89062,0.19141 -4.74609,0.48047 -7.43359,3.47266 -1.94922,2.10937 -2.96485,7.0039 -3.19141,8.71093 -0.004,0.0508 -0.89453,7.82032 -0.89453,15.47657 v 7.35937 c 0,7.66016 0.89062,15.42969 0.89844,15.50391 0.22656,1.68359 1.24218,6.58203 3.16797,8.65234 2.46484,2.74609 5.51171,3.14063 7.74609,3.42578 0.51562,0.0664 0.97266,0.12891 1.35156,0.20703 6.95313,0.70313 30.38672,0.9375 30.6211,0.9375 0.17187,0 19.18359,-0.0469 31.71484,-1.00781 l 0.52734,-0.0586 c 1.89063,-0.19922 4.7461,-0.4961 7.42969,-3.48047 1.94922,-2.10547 2.95703,-6.99219 3.1875,-8.69922 0.004,-0.0508 0.89844,-7.82031 0.89844,-15.48047 v -7.35937 c 0,-7.50782 -0.85938,-15.125 -0.89844,-15.49219 -0.23828,-1.72656 -1.25,-6.60156 -3.16797,-8.67578 -2.70312,-3.01172 -5.5625,-3.30469 -7.45703,-3.4961 l -0.60547,-0.0664 c -12.44531,-0.95703 -31.42969,-0.96485 -31.62109,-0.96485 z m 0,0"
       id="path30" />
    <path
       style="fill:#fdfaee;fill-opacity:1;fill-rule:nonzero;stroke:none"
       d="m 187.01953,173.85156 v 34.12891 l 28.4375,-17.0625 z m 0,0"
       id="path32" />
    <path
       style="fill:#452828;fill-opacity:1;fill-rule:nonzero;stroke:none"
       d="m 187.01953,209.53906 c -0.26562,0 -0.53125,-0.0703 -0.76953,-0.20312 -0.48438,-0.27344 -0.78906,-0.79688 -0.78906,-1.35547 v -34.12891 c 0,-0.55859 0.30078,-1.08203 0.78906,-1.35547 0.48437,-0.27734 1.08984,-0.27343 1.57031,0.0156 l 28.4375,17.0664 c 0.46875,0.28125 0.75781,0.78516 0.75781,1.33204 0,0.55078 -0.28515,1.05468 -0.75781,1.33593 l -28.4375,17.0625 c -0.24609,0.15235 -0.51953,0.23047 -0.80078,0.23047 z m 1.55859,-32.9375 v 28.62891 l 23.85157,-14.3125 z m 0,0"
       id="path34" />
  </g>
</svg>
