<?xml version="1.0" encoding="UTF-8" standalone="no"?>
<svg
   xmlns:dc="http://purl.org/dc/elements/1.1/"
   xmlns:cc="http://creativecommons.org/ns#"
   xmlns:rdf="http://www.w3.org/1999/02/22-rdf-syntax-ns#"
   xmlns:svg="http://www.w3.org/2000/svg"
   xmlns="http://www.w3.org/2000/svg"
   xmlns:sodipodi="http://sodipodi.sourceforge.net/DTD/sodipodi-0.dtd"
   xmlns:inkscape="http://www.inkscape.org/namespaces/inkscape"
   width="375pt"
   height="374.999991pt"
   viewBox="0 0 375 374.999991"
   version="1.2"
   id="svg72"
   sodipodi:docname="instagram.svg"
   inkscape:version="1.0.2 (e86c870879, 2021-01-15)">
  <metadata
     id="metadata76">
    <rdf:RDF>
      <cc:Work
         rdf:about="">
        <dc:format>image/svg+xml</dc:format>
        <dc:type
           rdf:resource="http://purl.org/dc/dcmitype/StillImage" />
      </cc:Work>
    </rdf:RDF>
  </metadata>
  <sodipodi:namedview
     pagecolor="#ffffff"
     bordercolor="#666666"
     borderopacity="1"
     objecttolerance="10"
     gridtolerance="10"
     guidetolerance="10"
     inkscape:pageopacity="0"
     inkscape:pageshadow="2"
     inkscape:window-width="1920"
     inkscape:window-height="1020"
     id="namedview74"
     showgrid="false"
     inkscape:zoom="1.2091526"
     inkscape:cx="298.56715"
     inkscape:cy="190.95055"
     inkscape:window-x="0"
     inkscape:window-y="28"
     inkscape:window-maximized="1"
     inkscape:current-layer="surface1" />
  <defs
     id="defs5">
    <clipPath
       id="clip1">
      <path
         d="M 17 30.703125 L 375 30.703125 L 375 344.109375 L 17 344.109375 Z M 17 30.703125 "
         id="path2" />
    </clipPath>
  </defs>
  <g
     id="surface1">
    <g
       clip-path="url(#clip1)"
       clip-rule="nonzero"
       id="g13" />
    <path
       style="fill:#fdfaee;fill-opacity:1;fill-rule:nonzero;stroke:none;stroke-width:1.9252"
       d="m 242.62039,195.7939 c -293.751722,-246.11332 -146.875876,-123.056663 0,0 z"
       id="path15"
       sodipodi:nodetypes="cc" />
    <path
       style="fill:#fdd4b3;fill-opacity:1;fill-rule:nonzero;stroke:none;stroke-width:1.9252"
       d="M 3.648811,304.74002 V 70.092609 c 0,-37.02228 30.03595,-67.0356728 67.080792,-67.0356728 H 305.51239 c 37.04484,0 67.08079,30.0133928 67.08079,67.0356728 V 304.74002 c 0,37.02228 -30.03595,67.03568 -67.08079,67.03568 H 70.729603 c -37.044842,0 -67.080792,-30.0134 -67.080792,-67.03568 z m 0,0"
       id="path23" />
    <path
       style="fill:#d48f51;fill-opacity:1;fill-rule:nonzero;stroke:none;stroke-width:1.9252"
       d="M 314.59688,11.073544 H 61.645121 c -27.599386,0 -49.972185,22.357757 -49.972185,49.949631 V 118.28249 H 364.57658 V 61.023175 c -0.007,-27.591874 -22.38033,-49.949631 -49.9797,-49.949631 z m 0,0"
       id="path25" />
    <path
       style="fill:#452828;fill-opacity:1;fill-rule:nonzero;stroke:none;stroke-width:1.9252"
       d="M 276.16079,120.37312 H 16.222699 c -2.308723,0 -4.18879,-1.87254 -4.18879,-4.18879 0,-2.30872 1.880067,-4.18878 4.18879,-4.18878 H 276.16079 c 2.31624,0 4.1963,1.88006 4.1963,4.18878 0,2.31625 -1.88006,4.18879 -4.1963,4.18879 z m 0,0"
       id="path27" />
    <path
       style="fill:#452828;fill-opacity:1;fill-rule:nonzero;stroke:none;stroke-width:1.9252"
       d="m 368.39688,120.37312 h -50.31059 c -2.30872,0 -4.18879,-1.87254 -4.18879,-4.18879 0,-2.30872 1.88007,-4.18878 4.18879,-4.18878 h 50.31059 c 2.31625,0 4.1963,1.88006 4.1963,4.18878 0,2.31625 -1.88005,4.18879 -4.1963,4.18879 z m 0,0"
       id="path29" />
    <path
       style="fill:#fdfdee;fill-opacity:1;fill-rule:nonzero;stroke:none;stroke-width:1.9252"
       d="m 188.12101,99.241157 c -2.88778,0 -5.77557,0.142883 -8.64832,0.421145 -2.87274,0.285776 -5.73043,0.706898 -8.56559,1.270928 -2.83513,0.56401 -5.63268,1.26341 -8.40014,2.10568 -2.75992,0.83475 -5.48227,1.81237 -8.15196,2.91033 -2.66969,1.10548 -5.27923,2.33881 -7.82109,3.69998 -2.54937,1.36116 -5.02352,2.85018 -7.43002,4.452 -2.39896,1.6018 -4.72273,3.32396 -6.95625,5.15138 -2.23353,1.83496 -4.36926,3.77518 -6.41477,5.81318 -2.04554,2.0455 -3.97824,4.18127 -5.81319,6.41478 -1.83494,2.23353 -3.54955,4.54976 -5.15888,6.94873 -1.60183,2.39897 -3.09084,4.87313 -4.45201,7.42251 -1.36117,2.54937 -2.59449,5.15138 -3.69998,7.82108 -1.10548,2.6697 -2.07558,5.38451 -2.91786,8.14446 -0.83476,2.76745 -1.54165,5.56499 -2.10569,8.40013 -0.56401,2.82761 -0.98515,5.68532 -1.27092,8.55807 -0.27824,2.87273 -0.421131,5.753 -0.421131,8.64078 0,2.88777 0.142891,5.76804 0.421131,8.64078 0.28577,2.87274 0.70691,5.73045 1.27092,8.55809 0.56404,2.83511 1.27093,5.63266 2.10569,8.40011 0.84228,2.75996 1.81238,5.47477 2.91786,8.14446 1.10549,2.66968 2.33881,5.27171 3.69998,7.82108 1.36117,2.54937 2.85018,5.02354 4.45201,7.42251 1.60933,2.39896 3.32394,4.71519 5.15888,6.94873 1.83495,2.23351 3.76765,4.36928 5.81319,6.41478 2.04551,2.03799 4.18124,3.97822 6.41477,5.81317 2.23352,1.82743 4.55729,3.54956 6.95625,5.15139 2.4065,1.60181 4.88065,3.09082 7.43002,4.45198 2.54186,1.36119 5.1514,2.59451 7.82109,3.69246 2.66969,1.10549 5.39204,2.08312 8.15196,2.91785 2.76746,0.84229 5.56501,1.54167 8.40014,2.10569 2.83516,0.56403 5.69285,0.98516 8.56559,1.27093 2.87275,0.27825 5.76054,0.42114 8.64832,0.42114 2.88778,0 5.77555,-0.14289 8.6483,-0.42114 2.87275,-0.28577 5.73045,-0.7069 8.56559,-1.27093 2.83513,-0.56402 5.63268,-1.2634 8.40014,-2.10569 2.75993,-0.83473 5.48227,-1.81236 8.15197,-2.91785 2.6697,-1.09795 5.27923,-2.33127 7.82109,-3.69246 2.54935,-1.36116 5.02353,-2.85017 7.43001,-4.45198 2.39898,-1.60183 4.72273,-3.32396 6.95625,-5.15139 2.23353,-1.83495 4.36927,-3.77518 6.41479,-5.81317 2.03798,-2.0455 3.97822,-4.18127 5.81317,-6.41478 1.83493,-2.23354 3.54956,-4.54977 5.15891,-6.94873 1.60182,-2.39897 3.09081,-4.87314 4.452,-7.42251 1.36115,-2.54937 2.59447,-5.1514 3.69996,-7.82108 1.10547,-2.66969 2.0756,-5.3845 2.91786,-8.14446 0.83475,-2.76745 1.54167,-5.565 2.10568,-8.40011 0.56402,-2.82764 0.98516,-5.68535 1.27093,-8.55809 0.27825,-2.87274 0.42114,-5.75301 0.42114,-8.64078 0,-2.88778 -0.14289,-5.76805 -0.42114,-8.64078 -0.28577,-2.87275 -0.70691,-5.73046 -1.27093,-8.55807 -0.56401,-2.83514 -1.27093,-5.63268 -2.10568,-8.40013 -0.84226,-2.75995 -1.81239,-5.47476 -2.91786,-8.14446 -1.10549,-2.6697 -2.33881,-5.27171 -3.69996,-7.82108 -1.36119,-2.54938 -2.85018,-5.02354 -4.452,-7.42251 -1.60935,-2.39897 -3.32398,-4.7152 -5.15891,-6.94873 -1.83495,-2.23351 -3.77519,-4.36928 -5.81317,-6.41478 -2.04552,-2.038 -4.18126,-3.97822 -6.41479,-5.81318 -2.23352,-1.82742 -4.55727,-3.54958 -6.95625,-5.15138 -2.40648,-1.60182 -4.88066,-3.09084 -7.43001,-4.452 -2.54186,-1.36117 -5.15139,-2.5945 -7.82109,-3.69998 -2.6697,-1.09796 -5.39204,-2.07558 -8.15197,-2.91033 -2.76746,-0.84227 -5.56501,-1.54167 -8.40014,-2.10568 -2.83514,-0.56403 -5.69284,-0.985152 -8.56559,-1.270928 -2.87275,-0.278262 -5.76052,-0.421145 -8.6483,-0.421145 z m 0,0"
       id="path31" />
    <path
       style="fill:#452828;fill-opacity:1;fill-rule:nonzero;stroke:none;stroke-width:1.9252"
       d="m 188.12101,279.77273 c -50.95734,0 -92.409071,-41.42915 -92.409071,-92.35641 0,-50.92727 41.451731,-92.356428 92.409071,-92.356428 50.95733,0 92.40906,41.429158 92.40906,92.356428 0,50.92726 -41.45173,92.35641 -92.40906,92.35641 z m 0,-176.33525 c -46.32485,0 -84.02396,37.67656 -84.02396,83.97884 0,46.30231 37.69911,83.97883 84.02396,83.97883 46.32484,0 84.02396,-37.67652 84.02396,-83.97883 0,-46.30228 -37.69912,-83.97884 -84.02396,-83.97884 z m 0,0"
       id="path33" />
    <path
       style="fill:#f0596b;fill-opacity:1;fill-rule:nonzero;stroke:none;stroke-width:1.9252"
       d="m 53.959399,7.0577192 h -0.368478 c -9.02433,0 -16.401712,7.3773848 -16.401712,16.3941848 v 95.830776 h 16.77019 z m 0,0"
       id="path35" />
    <path
       style="fill:#8f9cb5;fill-opacity:1;fill-rule:nonzero;stroke:none;stroke-width:1.9252"
       d="m 188.12101,131.30009 c -1.84248,0 -3.66989,0.0902 -5.50485,0.27071 -1.82742,0.18049 -3.64733,0.45121 -5.45217,0.81219 -1.79736,0.35346 -3.57967,0.80467 -5.3394,1.3386 -1.75976,0.53396 -3.48942,1.15061 -5.18899,1.85 -1.6996,0.70691 -3.36156,1.489 -4.97842,2.35386 -1.62437,0.87233 -3.20363,1.81238 -4.73024,2.83511 -1.52664,1.02277 -3.0006,2.1132 -4.42192,3.27886 -1.42135,1.16564 -2.7825,2.39895 -4.0835,3.69997 -1.30102,1.301 -2.53435,2.66218 -3.69998,4.07597 -1.16564,1.42135 -2.26361,2.89531 -3.28637,4.42944 -1.02274,1.52662 -1.96277,3.09835 -2.82762,4.72274 -0.87235,1.61684 -1.65445,3.27883 -2.36135,4.97841 -0.69939,1.69206 -1.32358,3.42171 -1.85751,5.18146 -0.53395,1.75974 -0.97764,3.54204 -1.33861,5.3394 -0.35345,1.80484 -0.62419,3.61724 -0.80466,5.4522 -0.18049,1.82741 -0.27074,3.66236 -0.27074,5.49731 0,1.83494 0.0902,3.66989 0.27074,5.49731 0.18047,1.83494 0.45121,3.64734 0.80466,5.45222 0.36097,1.79732 0.80466,3.57963 1.33861,5.33937 0.53393,1.75974 1.15812,3.4894 1.85751,5.18148 0.7069,1.69957 1.489,3.36154 2.36135,4.9784 0.86485,1.62439 1.80488,3.19612 2.82762,4.72274 1.02276,1.53412 2.12073,3.00811 3.28637,4.42942 1.16563,1.41381 2.39896,2.775 3.69998,4.07601 1.301,1.30099 2.66215,2.5343 4.0835,3.69996 1.42132,1.16564 2.89528,2.25607 4.42192,3.27884 1.52661,1.02276 3.10587,1.96278 4.73024,2.83514 1.61686,0.86483 3.27882,1.64693 4.97842,2.35385 1.69957,0.69937 3.42923,1.31602 5.18899,1.84998 1.75973,0.53394 3.54204,0.98516 5.3394,1.3386 1.80484,0.36098 3.62475,0.6317 5.45217,0.8122 1.83496,0.18048 3.66237,0.27073 5.50485,0.27073 1.84246,0 3.66988,-0.0902 5.50485,-0.27073 1.82741,-0.1805 3.6473,-0.45122 5.45216,-0.8122 1.79736,-0.35344 3.57966,-0.80466 5.3394,-1.3386 1.75975,-0.53396 3.48941,-1.15061 5.18898,-1.84998 1.6996,-0.70692 3.36156,-1.48902 4.97841,-2.35385 1.62439,-0.87236 3.20365,-1.81238 4.73027,-2.83514 1.52661,-1.02277 3.00058,-2.1132 4.42191,-3.27884 1.42134,-1.16566 2.78251,-2.39897 4.0835,-3.69996 1.30103,-1.30101 2.53435,-2.6622 3.69999,-4.07601 1.16563,-1.42131 2.26359,-2.8953 3.28635,-4.42942 1.02276,-1.52662 1.96279,-3.09835 2.82762,-4.72274 0.87235,-1.61686 1.65446,-3.27883 2.36137,-4.9784 0.69937,-1.69208 1.32356,-3.42174 1.8575,-5.18148 0.53394,-1.75974 0.97764,-3.54205 1.3386,-5.33937 0.35346,-1.80488 0.62419,-3.61728 0.80467,-5.45222 0.1805,-1.82742 0.27074,-3.66237 0.27074,-5.49731 0,-1.83495 -0.0902,-3.6699 -0.27074,-5.49731 -0.18048,-1.83496 -0.45121,-3.64736 -0.80467,-5.4522 -0.36096,-1.79736 -0.80466,-3.57966 -1.3386,-5.3394 -0.53394,-1.75975 -1.15813,-3.4894 -1.8575,-5.18146 -0.70691,-1.69958 -1.48902,-3.36157 -2.36137,-4.97841 -0.86483,-1.62439 -1.80486,-3.19612 -2.82762,-4.72274 -1.02276,-1.53413 -2.12072,-3.00809 -3.28635,-4.42944 -1.16564,-1.41379 -2.39896,-2.77497 -3.69999,-4.07597 -1.30099,-1.30102 -2.66216,-2.53433 -4.0835,-3.69997 -1.42133,-1.16566 -2.8953,-2.25609 -4.42191,-3.27886 -1.52662,-1.02273 -3.10588,-1.96278 -4.73027,-2.83511 -1.61685,-0.86486 -3.27881,-1.64695 -4.97841,-2.35386 -1.69957,-0.69939 -3.42923,-1.31604 -5.18898,-1.85 -1.75974,-0.53393 -3.54204,-0.98514 -5.3394,-1.3386 -1.80486,-0.36098 -3.62475,-0.6317 -5.45216,-0.81219 -1.83497,-0.18049 -3.66239,-0.27071 -5.50485,-0.27071 z m 0,0"
       id="path37" />
    <path
       style="fill:#75cad1;fill-opacity:1;fill-rule:nonzero;stroke:none;stroke-width:1.9252"
       d="m 160.04784,147.3408 c -1.31604,0 -2.61704,0.12785 -3.91053,0.38354 -1.2935,0.26321 -2.54938,0.63923 -3.76015,1.14307 -1.21828,0.50386 -2.3764,1.12053 -3.46683,1.85001 -1.09797,0.72946 -2.10568,1.56421 -3.03818,2.49672 -0.93253,0.92498 -1.75976,1.94022 -2.49675,3.03066 -0.72946,1.09798 -1.34612,2.24856 -1.84998,3.46686 -0.50387,1.21827 -0.88739,2.46663 -1.14308,3.76012 -0.25568,1.28597 -0.38352,2.5945 -0.38352,3.91055 0,1.31604 0.12784,2.61704 0.38352,3.903 0.25569,1.2935 0.63921,2.54938 1.14308,3.76016 0.50386,1.21827 1.12052,2.36886 1.84998,3.46681 0.73699,1.09047 1.56422,2.10569 2.49675,3.03821 0.9325,0.92498 1.94021,1.75974 3.03818,2.4892 1.09043,0.72949 2.24855,1.34615 3.46683,1.84999 1.21077,0.50386 2.46665,0.8874 3.76015,1.14308 1.29349,0.25569 2.59449,0.38354 3.91053,0.38354 1.31605,0 2.61705,-0.12785 3.91054,-0.38354 1.29348,-0.25568 2.54185,-0.63922 3.76013,-1.14308 1.21828,-0.50384 2.37642,-1.1205 3.46686,-1.84999 1.09795,-0.72946 2.10565,-1.56422 3.03819,-2.4892 0.9325,-0.93252 1.75973,-1.94774 2.49672,-3.03821 0.72947,-1.09795 1.34612,-2.24854 1.84998,-3.46681 0.50386,-1.21078 0.88739,-2.46666 1.14308,-3.76016 0.25568,-1.28596 0.38354,-2.58696 0.38354,-3.903 0,-1.31605 -0.12786,-2.62458 -0.38354,-3.91055 -0.25569,-1.29349 -0.63922,-2.54185 -1.14308,-3.76012 -0.50386,-1.2183 -1.12051,-2.36888 -1.84998,-3.46686 -0.73699,-1.09044 -1.56422,-2.10568 -2.49672,-3.03066 -0.93254,-0.93251 -1.94024,-1.76726 -3.03819,-2.49672 -1.09044,-0.72948 -2.24858,-1.34615 -3.46686,-1.85001 -1.21828,-0.50384 -2.46665,-0.87986 -3.76013,-1.14307 -1.29349,-0.25569 -2.59449,-0.38354 -3.91054,-0.38354 z m 0,0"
       id="path39" />
    <path
       style="fill:#452828;fill-opacity:1;fill-rule:nonzero;stroke:none;stroke-width:1.9252"
       d="m 160.04784,191.60511 c -13.37104,0 -24.25288,-10.86679 -24.25288,-24.23031 0,-13.36352 10.88184,-24.2303 24.25288,-24.2303 13.37103,0 24.25287,10.86678 24.25287,24.2303 0,13.36352 -10.88184,24.23031 -24.25287,24.23031 z m 0,-40.0755 c -8.74608,0 -15.86775,7.10663 -15.86775,15.85272 0,8.73854 7.12167,15.85273 15.86775,15.85273 8.74606,0 15.86776,-7.11419 15.86776,-15.85273 0,-8.74609 -7.1217,-15.85272 -15.86776,-15.85272 z m 0,0"
       id="path41" />
    <path
       style="fill:#b57547;fill-opacity:1;fill-rule:nonzero;stroke:none;stroke-width:1.9252"
       d="m 276.16079,40.763563 h 50.3106 V 91.04408 h -50.3106 z m 0,0"
       id="path43" />
    <path
       style="fill:#452828;fill-opacity:1;fill-rule:nonzero;stroke:none;stroke-width:1.9252"
       d="M 330.6677,95.232876 H 271.97201 V 36.574775 h 58.69569 z m -50.31061,-8.377582 h 41.9255 V 44.952353 h -41.9255 z m 0,0"
       id="path45" />
    <path
       style="fill:#f8e65c;fill-opacity:1;fill-rule:nonzero;stroke:none;stroke-width:1.9252"
       d="M 53.959399,11.073544 H 70.729603 V 115.28191 H 53.959399 Z m 0,0"
       id="path47" />
    <path
       style="fill:#a1d1a1;fill-opacity:1;fill-rule:nonzero;stroke:none;stroke-width:1.9252"
       d="M 70.729603,11.073544 H 87.499794 V 115.28191 H 70.729603 Z m 0,0"
       id="path49" />
    <path
       style="fill:#38c2d7;fill-opacity:1;fill-rule:nonzero;stroke:none;stroke-width:1.9252"
       d="M 87.499794,11.073544 H 104.27001 V 115.28191 H 87.499794 Z m 0,0"
       id="path51" />
    <path
       style="fill:#452828;fill-opacity:1;fill-rule:nonzero;stroke:none;stroke-width:1.9252"
       d="m 308.43025,14.788556 c 28.9004,0 52.4238,23.500839 52.4238,52.39371 V 307.65037 c 0,28.90039 -23.5234,52.3937 -52.4238,52.3937 H 67.811743 c -28.900395,0 -52.423795,-23.50084 -52.423795,-52.3937 V 67.182266 c 0,-28.900392 23.5234,-52.39371 52.423795,-52.39371 H 308.43025 m 0,-11.7316198 H 67.811743 c -35.292621,0 -64.162932,28.8477508 -64.162932,64.1253298 V 307.65037 c 0,35.27757 28.870311,64.12533 64.162932,64.12533 H 308.43025 c 35.29264,0 64.16293,-28.84776 64.16293,-64.12533 V 67.182266 c 0,-35.277579 -28.87029,-64.1253298 -64.16293,-64.1253298 z m 0,0"
       id="path53" />
    <path
       style="fill:#b57547;fill-opacity:1;fill-rule:nonzero;stroke:none;stroke-width:1.9252"
       d="M 89.823567,107.80675 H 45.3487 c -6.144061,0 -11.122479,5.62516 -11.122479,12.56637 0,6.94874 4.978418,12.57389 11.122479,12.57389 h 44.474867 c 6.144067,0 11.114953,-5.62515 11.114953,-12.57389 0,-6.94121 -4.970886,-12.56637 -11.114953,-12.56637 z m 0,0"
       id="path55" />
    <path
       style="fill:#452828;fill-opacity:1;fill-rule:nonzero;stroke:none;stroke-width:1.9252"
       d="M 89.823567,137.13579 H 45.341178 c -8.44526,0 -15.311266,-7.52027 -15.311266,-16.76267 0,-9.24241 6.866006,-16.75517 15.311266,-16.75517 h 44.482389 c 8.44526,0 15.311273,7.51276 15.311273,16.75517 0,9.2424 -6.866013,16.76267 -15.311273,16.76267 z M 45.3487,111.99555 c -3.812777,0 -6.926169,3.7526 -6.926169,8.37757 0,4.62496 3.113392,8.38511 6.926169,8.38511 h 44.482386 c 3.812775,0 6.926171,-3.76015 6.926171,-8.38511 0,-4.62497 -3.113396,-8.37757 -6.926171,-8.37757 z m 0,0"
       id="path57" />
    <path
       style="fill:#452828;fill-opacity:1;fill-rule:nonzero;stroke:none;stroke-width:1.9252"
       d="m 234.67145,222.97214 c -0.81217,0 -1.62435,-0.22561 -2.3463,-0.72193 -1.91768,-1.28598 -2.42155,-3.90304 -1.12054,-5.81318 5.79062,-8.56558 8.87393,-18.61265 8.87393,-29.02071 0,-2.31625 1.87255,-4.1888 4.18879,-4.1888 2.31625,0 4.1963,1.87255 4.1963,4.1888 0,12.0926 -3.5646,23.74901 -10.31029,33.71337 -0.81969,1.19572 -2.13575,1.84245 -3.48189,1.84245 z m 0,0"
       id="path59" />
    <path
       style="fill:#452828;fill-opacity:1;fill-rule:nonzero;stroke:none;stroke-width:1.9252"
       d="m 188.12101,247.71384 c -33.26967,0 -60.32761,-27.05042 -60.32761,-60.29752 0,-33.24711 27.06545,-60.29751 60.32761,-60.29751 21.51549,0 41.57203,11.58875 52.32602,30.24651 1.1506,2.00792 0.46626,4.57232 -1.54918,5.73046 -2.0079,1.13556 -4.57231,0.45872 -5.73044,-1.54167 -9.25744,-16.07081 -26.52399,-26.0502 -45.05393,-26.0502 -28.6447,0 -51.95001,23.28274 -51.95001,51.91241 0,28.62966 23.30531,51.91241 51.95001,51.91241 2.31625,0 4.18879,1.88006 4.18879,4.18878 0,2.31625 -1.86504,4.19633 -4.18126,4.19633 z m 0,0"
       id="path61" />
  </g>
</svg>
